# xmcd
#
# Track frame offsets: 
#        150
#        16312
#        25886
#        42518
#        55172
#        71100
#        80317
#        91771
#        100008
#        115566
#        129951
#        139632
#        163842
#        174874
#        183554
#        186705
#        201376
#
# Disc length: 2900 seconds
#
# Revision: 0
# Processed by: cddbd v1.5.2PL0 Copyright (c) Steve Scherf et al.
# Submitted via: ExactAudioCopy v0.99pb5
#
DISCID=e30b5211
DTITLE=Barrelhouse Buck McFarland - Alton Blues
DYEAR=2007
DGENRE=Blues
TTITLE0=Four O'Clock Blues
TTITLE1=Alton Blues (take 2)
TTITLE2=Lamp Post Blues (take 2)
TTITLE3=Charlie's Stomp
TTITLE4=Railroad Blues
TTITLE5=Dupree Blues
TTITLE6=I Got To Go Blues (take 2)
TTITLE7=Barrelhouse Buck
TTITLE8=Mercy Mercy Blues
TTITLE9=Don't Stop Now
TTITLE10=Buck's Blues
TTITLE11=Talk
TTITLE12=Lamp Post Blues (take 1)
TTITLE13=Alton Blues (take 1)
TTITLE14=Intro
TTITLE15=I Got To Go Blues (take 1)
TTITLE16=Goodbye Blues
EXTD=
EXTT0=
EXTT1=
EXTT2=
EXTT3=
EXTT4=
EXTT5=
EXTT6=
EXTT7=
EXTT8=
EXTT9=
EXTT10=
EXTT11=
EXTT12=
EXTT13=
EXTT14=
EXTT15=
EXTT16=
PLAYORDER=
